/* XPM */
static char *result[] = {
/* columns rows colors chars-per-pixel */
"32 32 13 1 ",
"  c black",
". c #010000",
"X c #000100",
"o c #000001",
"O c #000101",
"+ c #CA8A0A",
"@ c #CB8A0A",
"# c #CA8B0A",
"$ c #CB8B0A",
"% c #CA8A0B",
"& c #CB8A0B",
"* c #CA8B0B",
"= c #CB8B0B",
/* pixels */
"+++++++++++++++++#+++++++++++++%",
"+X o.    o   . .        o o    +",
"+ +++++%@*++++@++++#+++@++++++.+",
"+ $++++@++++#$++++++@++ ++@@+% +",
"+ +&+++++++++%#%+++++#. ++@+++ +",
"+ ++++%@+++#%++#+++++      . & +",
"+ ++%++++++%++++++++  o    O +.+",
"+ +@++++++++++++++++%     o  # +",
"+ ++++%++@+@#+++++++++  %++%#+ +",
"@ +%++#+++++++@+++++++# #+++++ +",
"+o+++++++++++++##+++++++##++%+o+",
"+X++#+++@++%%#+++@++++@#++#+++ +",
"+ ++$++++%#+++++++%#+++%++++++ @",
"+ ++%+++++++++++*+@+++=$#++%%+ #",
"+ +++#@@+++@#++++++++++++%$+++ +",
"+ ++++%+#++++@%++%++&++++++%++ +",
"+ +++%++++++++%%+++++++++@+++@ +",
"+ ++%++@+++@+++++%+#++#++%++++ +",
"+X++++#++++#+++++++#+++++++@+@X+",
"+ +++++++%+#+++++@++++++++++#@ +",
"+ ++++++++++##+++++++++++++%++ @",
"+ +++++++++++@+++@++++@++++@+# @",
"+.*++++++%%+++++@+++++++#%%&@+ @",
"+ %++%++++++%$++%++@#++#++++++ +",
"+ @+@+++@+@++++++++++@+++%+@++ +",
"+ +%+++@+%+++@+%+++++++#++++++ #",
"+ $*++*++++++++%++++++@+@++$+@ #",
"#.++%++++++#%=+#+@#%+%#++&++++ +",
"+O+++%+++%++%++@++%+%+++++#+++ +",
"+O+#+++%+++++@+++++++%@+++++#+ +",
"+ X    .     .  oo o  .        +",
"++++#+++##+%+++%++#++++%+#++++++"
};
