/* XPM */
static char *result[] = {
/* columns rows colors chars-per-pixel */
"64 64 23 1 ",
"  c black",
". c #010000",
"X c #000100",
"o c #010100",
"O c #000001",
"+ c #010001",
"@ c #000101",
"# c #010101",
"$ c #3A301E",
"% c #3A311E",
"& c #3B311E",
"* c #3A301F",
"= c #3B301F",
"- c #3A311F",
"; c #3B311F",
": c #CA8A0A",
"> c #CB8A0A",
", c #CA8B0A",
"< c #CB8B0A",
"1 c #CA8A0B",
"2 c #CB8A0B",
"3 c #CA8B0B",
"4 c #CB8B0B",
/* pixels */
":<,<33331:<43,131,>:,,33<244,,3<11,311:>31:>::>>:>1>::1133:::>::",
">><<3333::44,,113,::,,33>>24,,<<2134:1>>34>:::>>>:22::11331>::::",
"11 X .O@.oooOO    X ..X XX@@O     @     OOo+o.XXXO++XX  XXOO. :1",
"1:. O @X..ooOO     ..  XXX@@OO       OO OO+...XXX +.oX XX@@O  ::",
"11O@>>><<<>:,,:::>1331>>13,,><,,::>>2:>>::>>>:,,,::1,1::>><:  ,,",
"1,OO><>><4><:,::::4311>>1:,<>>3<::<>::2>::<>::,,,:::::>:>>1: X:,",
"11XO:>:,::><<<:::12122:>11,,,,>>,,:::::::><>::.OO:::::::12::OO,,",
"11  :::::1>><4::::11222>11,,,,>>,,>::1::>:>>::+  :>:::::22::OX:,",
",3OO::>>11:::11>2::1::>>::31>>11::>:>>::1::1  ##@,<:::,<::::  >>",
",,OO>:>:11::::111,::::>:,,11>>12::1:>::1::::  ##@,:::,,,:,::  ><",
">>.o<>>>::11>>,>:,<,11:>::11::11>>::1:::::O@  OO@   X +O  11OX11",
">>.+>>::>>11><::::,,12::::31::31>>:>::::::O@O OOO O  XOO  11X@:1",
"44OO:11:,,::>>:>>3:::::>>>><::::::::1:>>   XXXXXX OO.   XX:: X::",
"44OO:>11,,::>:1::3::>1:>>>>>::::>:::1:>>    XXXXXoO+ XX XX:: X::",
"12Xo,:>:,,11::,,,>4,::::>>,:1:::>>>:::>:>>O@+    O        11  11",
"11@X1>,>,,11,:3,<>,,:::>>>:::::,>>>>:>::::OO.    O X      >:  11",
"11 X::>>,,11>:,:,>,,::::>>,:::::>>>>::::::OO   .OO X O .  ::. 1:",
"::  ><<<::::>:>:<14<11:::::::::>>:22<>::::,,  XX@1::<>,:31>:  ::",
">>OO::3,11>>,,::::::::11>2,,>>33::::<>::>>::::   >1:1:::::::O@33",
">>OO::,,11>>,,:::::11,11>>:,::34::::<2,:>>::::...:>:21::::::OO33",
":: O:122:::11::::::,1:3,:>::,:21111,2>221:,,::>>>3>>:>,,:,1:  11",
"::  ::241:::::>:::::13:,:>::::1112,,2>44::,<1:<>>3><::,,:,:1  11",
":3  >1::,>>>>>>>2:::>>>:::<:,,1>,111::>>::::>:111333,,::>>,,X ::",
",,  ::::::<>><:>>:,:2>:>>:::,,>>::21,::>:::1>2111413:,::>>4,  :>",
",1. ,,2211>:,,:::::::::,--------%------;--::11,3,>>>11>>::<>+O,<",
"1, O1,1111::,3:>1:1:::1:-&---;------;-*---1:11,,,>>>:1>>1:>:OO,,",
">>oo,,11::::,<:::,,,::2>--:::,>>11::::::1:>:::,::31:,<:::11:@X::",
"<>.o,311::::,,::::,:,:>>--:>::>>21:::::::<,:,::::3:>,,,,1,::X ::",
"4<OO<2>>:>::113::>:::::>-->>::::::>>:>::::::::::::,,,:>>12>> X::",
"<<OO<<><:>>:11:>:>:1:,:>--:>::::::>>:,::::::::::::,,:3>>31><O ::",
"11  24::,32>:1::::::,1::%-:::3::::::,,:,:::::1:,:::12>::12::  <,",
"11 .22>::,>>::::::3:::1:-=,:::>:::::,<:>>::>::::::::>>::22::  <,",
"<4 .:<:>,1:::1:::::::>::-------;%%---%----::::::::::1:,,:,::  ::",
"<<  ,,:::::111:::::::>::-------*----------:,::>:::::1:,,,,::  ::",
"::..:,::32,:2:,,,:::::1::,,::1::1:::::<:-->>>:112:31::::::::X ,,",
"::..,,:::1::::,,,:1,,:::::::::::::>:1::,$-:>:1:11<,3::::::::  ,,",
"31..><,3::>>,::::1,,::::>:::::::,:1:::::--:::11111,,,,1:>:1:  11",
"11..>2,:>>>>,,>::::::1::1,::1:1:::::<1::--:1:,1111,,,,>:::,: .11",
",,  ::::11::::2>>>:::::::>::::,:::<::::<;-3:::>:::::,::::,:1  21",
":, .:1:::>,1::2>>::::>::::,::::>::>:1:::;=:1::1::::::::::<::  1:",
"13 .::::,,<<,:333:::::::;*--------**------>:>>:::<3,11::3>>>OO::",
"11  ,:::,,4,,,,4411:::::----;--------%---%::>>1::<:311::::2>O@,:",
",,XX1:1:>2::,::,,:::,::::::<>:::::::::::::1:11>11421::>><<::+O::",
"3, X1:::<>,::,::1>:::,>:31:::,::,:::::1>,,>>1:111411:::><<::O ::",
"2>+.::11::::11:::1::,::1::::::>>:,,,::>::>:::<<<<,1:1:,,::31..11",
">>..::11:::,111::1:::>::::::::>>1:3,::::::::,,<<<,1131,,::33..11",
"<4XX::,422::::::::::::::::,:,<1::::::::,::,,111>::,,::,,::>>O >:",
">>XX2:<<>2,:>:3:::::,::::3::,,:,::::11::1,,,11>>>:,::>,,::>>OO:<",
"2:oX>:<<>2>:>:::3:::,>::::::,,:,:,::1,::::,,112<>1,,::,,::>>@O>>",
"22  :,2211::::<::,>>11,,,1::,,,>,,33::<,::3:33::,2::::22::::  >>",
",,@@<<,,::,,:>:1:::,21::,,::11>>>>::::,,>>::32:,::,<><::>>:>OO::",
",,XX<<,<13,,>:::::::131<,,::12>>>>::,:,,>:::22:,::,3<2::>2::O ::",
":>  44,,,,:1:::::,::::1::><::31111>:<<11>>,,1>::,1>>>>44133,.X3,",
"::  42:,,,:1:::::,:::>::>2::1:1:11::>>11<>,,<>::11><1>4<>:,<..,,",
"11XX::::::>431::::::::::,,:,3311,:11:,:,::>>::>>>,221:>>::>>  ,,",
":1X@::::::>>11::::::::::,,::3311,,11::::::>:::>>>:42::>>::2>  ,<",
":,..<2::::2>>>:::2:1::,3::,,::::>>11:>2>>1,,>:>>>:::12:>>:::X ::",
",,.o>>:::,2>>>1::21,::,<::<,>:::>>11:,>>1:,:::>>>:::11>::,,:  ::",
"33XX::>>>:::11333,,<:>>11:<,::44:11111<,::::::>>:3,:>2>>,,>1o ::",
"33XX::22:1:12:33,:3,::11::><::44::3111,,:,:1::>>>,::212>,,::O 1:",
",,OOXX  ##X@     O XO     X.OO    . oo  @@XX..+++O@@@@oo    . ::",
",,OOXXO ## XX    +      X oXO .    XXX  @+XX..++OO@@@@oo      >:",
"33::::11,,22:::::3>>2<>>,,::::,,22:::131>:<<,,>::>,,::::21222><<",
"33::::11,,24:::::4>>>>><,::::::,22::::11::<4,,:::><,:::3112>224<"
};
