/* XPM */
static char *result[] = {
/* columns rows colors chars-per-pixel */
"64 64 22 1 ",
"  c black",
". c #010000",
"X c #000100",
"o c #010100",
"O c #000001",
"+ c #010001",
"@ c #000101",
"# c #010101",
"$ c #3A301E",
"% c #3A311E",
"& c #3B311E",
"* c #3A301F",
"= c #3A311F",
"- c #3B311F",
"; c #CA8A0A",
": c #CB8A0A",
"> c #CA8B0A",
", c #CB8B0A",
"< c #CA8A0B",
"1 c #CB8A0B",
"2 c #CA8B0B",
"3 c #CB8B0B",
/* pixels */
"::,,22<<;;22>><<>>;;>>22::33>>;;<<22<<,>22<<;;::,,::;;<<>>;;,,;;",
"::,,22<<;;22>,<<>>;;>>22::33>>;;<<221<,,22<<;;::,,::;;2<>>;;,,;;",
"<<XXOO  oo    ..XX  ++  oo  OO .OO  ..@@++....XXOO..XX..oX  OO;;",
"<<XX@O  oo.   ..Xo  ++  oo  OO  O+  ..@@++..o.XXOO..XX..XX  OO;;",
";;++;;;;;;::;;;;;;::;;;;;;22;<::;;;;;;::;;,,;;>>::;;;>;;::::  >;",
";;++;;;;;;:::;;;;;::;;<;;;22;;::;;;;;;::;;,,;;>>;:;;;;;;::::  >2",
"<<  ;;;;;;;;::<<;>::;;::11,>;;::<;;;;;;;;;;;,,  <<;;;;;;>>;;  >>",
"<<O ;;;;;;;;::<<;;::;;:::1>,;;::;;;;;;;;;;;;,,. <<;;;;;;>>;;  >>",
">>  <<<;>>;;;;;;;;::;;::;;;;::<<<<;;;;;;;;;<  @@22>;::;;;;;>  ::",
">>  <<;;>>;;;;;;;;::<;::;;;;::<<<<;;;;;;:;;<  O@22;;::;;;;;;  ::",
",,..;;;;;;;;11;;::>>>>;;;;<<>;>>::;;;;::;;++  OO    ...+XX<<@@;;",
",,..;;;;;;;;11;;::>>>>;;;;<<;;>>::;;;;::;;++  OO    ....XX<<@@;<",
"11..;;22;;::;;;;;;;;;;::;;::>>;;;;>>;>::.. .XXoo  OO   X O;; O;;",
"31..,;22;;::;;;;;;;;;;::;;::>>;<;;>>;;::..  XXoo OOO      <;  ;;",
"::XX;;;;>>33::>>::>>;>;;::;;;;;;;;::11;;::OOXX  @O  O     ;;OO;;",
"::XX;;;;>>33::>>::,>;;;;::;;<;;;;;::11;;::OOXXX OO        ;;OO;;",
";;  >>::::;;:,,,;;;;<<::;;;;;;;;;;11;;;;;;;;    ;;>:;;::<<11  ;;",
";;  >>::1:;;::,,;;;><<,:;;;;;;;;;;11;;;;;;;;    ;;;;;;,:<<11  ;;",
",3XX;;>><<,,,>;;;;;;>>;;<<2>;;::<<<<::;;::;;;;  ;;;;<<;;;;;;  ;;",
",,XX;;>><<,,>>;<;;;;>>;<<<22>;::<<<<::;;::;;;;  ;;;;<<;;;;;;  ;;",
"::..::::;;11>;;;::;;>><<;;>><<;;;;22::::<<>>;;:;;;;<;;;;;;;;OO;;",
"::.+::::;;1<;;;;::;;>><<:;>><<;;;;2>:::,<<>,;;:;;;;;;;;;;;;;OO;;",
"::  ;;;;<<;;:::1<<;;::%%======-===**$*====;;::;:22>>>>>>;;;;  ;<",
":,  ;;;;<<;;:;::<<;;::%%==========****====;;::;;22>>>>22;;;;  ;;",
";;  ;;11;;;:>>;;;;;;::&&<<;;2<;;;;;;11;;;;;;11;<33::<<;;>>:1O ;;",
";;  ;<11;;;;>>;:;;;;::-&<<;;<<;;;;;;11;;;;;;11;:33;:<<;;>>::OO;;",
"::..;;11;>::;;;;;;>;11==;;;;::;;;;<<>>;;>>;;;;;;,,::>>>>;>;;  ;;",
"::..;;13;;::;;;;;;>>11==;;;;::;;;;<<>>;;>>;;;;;;,,::>>>>;;;; O;;",
":1  ,,::,>;;;;>><<>>>;==<;<<;;<<;;>>;;<<;;>2>>;;;;>,;;::;;::  >>",
"::  ,,::>>;;;;>><<>>>>==<<<<;;<<;;>>;;<<>;>>>>;;;;>>;;::;;::  >>",
"<<  <<>>>>;;>>>>;;>>:1**;;<1;;<<;;;;2>;;;;:;1:;;;;<<;;::;;;;  ,,",
"<< O<<>>>>;;>>>>;;>>::**;;<<;;2<;;;;>>;;;;;;11:;;;<<:;::;;;;  ,,",
",,  22;;>><<;;>>::;;;;====*===&&**%%==:;>>;;;;>>;;>><<>>;;::..>>",
",,  22;<>><<;;>>::;;;;========&&***%=%;;>>;;;;>>;;>><<>>;:::..>>",
";;  >>::>><;>>::;;;;22==>>>>::<<>>;;;;2>;;:,::;<,,22;;;;;:;;  ;;",
";;  >>::>>;;>>::;;;;22==>>>>::<<>>;;;;22;;::;1;;,,22;;;:;;;;  ;;",
"11  ;;;;;;;;;;;;::;;>>==<<33;;;;;;;;::;;33:;;;;;;;1123:1;;<<XX>>",
"11  ;;;;;;;;;;;;:::;,>==<<33;;;;;;;;::;;33;;;;;;;;1133::;;<<X >>",
">>  11;;;;;;::>>;;;;22**;;>>;;>>::;>,,;;::<<<<;;;::;>>;;2>;;  <<",
">>  11;;;;<;::>>;;;;22**;;>>;;;;::>>,,;;::<<<<;;:;;;>>;<>>;;  <<",
";;XX;;;>;;>>::>>;;,,<2==;><<<<<<;;;;;;;;;;22>>;;;;2222;;;;:1OO<<",
";;XX;;;;;;>>::>>;;,,<<==;;<<<<<<;;;;;;;;;;22>>;;;;2222;;;;::OO<<",
";;  ::;;::;;;;22<<3322=============-======::;;<<,,::;;::>>;;OO;;",
";;  ::;;::;;;;22<<2322=*=======*==========::;;<<,,::;;::>>;;OO;;",
"::oo;:>;;;;;<<><;;<<<<,,;;;;;>>;2222;;;;22;2;;::,,<<<<;;>>22  ;;",
"::o.;;;;;<;;<<;;;;<<<<,,;>;;;;;>2222;;;;22;;;;::,,<<<<;;>>22 X>;",
":: X;;::>><;,,<<;;;;>>;;;::;::;;;;11>>::;;;;<<;;::;;;;;;<<;;++::",
"::XX;;::>>;;,,<<;;;;>>>;;;::::;;;;11>>::;;;;1<;<::;;;;;;<<;;++::",
"11  ;<<<;;;;;;<<<<;;;;;;::<<;;;;<<,,;;>><<;;<<>><3<<;;;;2>;;  ;;",
"11  <<<<;;;;;;<<<<;;;<;<::<<;;;;<<,,;;>,<<;;<<>><<<<;;;;>>;;  ;;",
";;XX>>>><<;;::;;::;;<<;;;;1:;;1133;;;;;;;;<<<>;;;;33<<;;;;;;  ;;",
";;XX>>>><<;;::;;::;;<<;;;;::;;<133;;;;;;;;<<<<;;;;33;<;;;;;;  ;;",
";;  11;;;>;;:;33;;;;;;;;::;;<<<<2<;;,,;;;;>>;;;;<<;;::<<22,,..,,",
";;  11;;>>;;;;33;:;;;;;;::;;<<<<<<;;:,;;;;>>;;;;<<;;::<<22,,.#,,",
"<< O;;:1;;;;<<;;;;;;;2<<;;;;>>;;;<;;;;<<;;;;;;11<<33;;;;;;::  ;;",
"<<  ;;;:;;;;<<;;;;;;;;<<;;;;>>;;;:;;;;<<;;;;;;11<<33;;;;;;:,  ;;",
">>..;;;;::::::;;3311;;>>::<<>>;;::;;;;,,;;>>,,11;;;>;;::;;;;..;;",
">>..;;;;::::::;;3311;:>>::<<>>;;::;;;;,,;;>>,,11;;;;;;::;;;;..;;",
";;XX;;;;;;;;;;22<;;;;;;;>>>>;;<<;;;;<<>>;;;;;;;;;;;;<;::>>;;  ::",
";;XX;;;;;;;;;;22;;;;;;<;>>>>;;<<;;;:<<>>;;;;;>;;;;;;;;::>>;;  ::",
">>  OO  ##XX    ++   XOO    OO..    @@XX        ..XXXX .      >>",
">>  OO  +#XX    ++  O OO  . OO...   @@XX        +.XXXX.. .    >>",
"<<;;;;2<;;<<;;>>;;::;;<<>>;;;;::::>>>;22;;;;>>>>;:,,<<;;>;:,31::",
"<<;;;;<<;;<<;;>>;;,:;;<<>>;;<;::::>>;;22;;;;>>>>:1,,<<;;;;::11::"
};
