/* XPM */
static char *result[] = {
/* columns rows colors chars-per-pixel */
"64 64 21 1 ",
"  c black",
". c #010000",
"X c #000100",
"o c #010100",
"O c #000001",
"+ c #010001",
"@ c #000101",
"# c #010101",
"$ c #3A301E",
"% c #3A311E",
"& c #3A301F",
"* c #3A311F",
"= c #3B311F",
"- c #CA8A0A",
"; c #CB8A0A",
": c #CA8B0A",
"> c #CB8B0A",
", c #CA8A0B",
"< c #CB8A0B",
"1 c #CA8B0B",
"2 c #CB8B0B",
/* pixels */
";<>;:112--221:,1->--:-1,>;22::>>,-11,,;;1,----;;;;<<--,,1:--;---",
">;>>1>,1-;2<::,,,>--::11;;22::>::,121,;;11-::-;;;;2<-;1,2,--:---",
",;  O.@#..Xo@O .  O ..  XX@@#O   @ X    OO....X#XO#+XX  XX@@  ;:",
",<    #@..XoOO X    .o  XX@@OO          O@.+..XX@+++XX XXX@@  --",
",,+@;;;;>;;;::;:,-11,,;;-,:-;;>:-->;-:-;:,>;--:::------;-;:-  ::",
",,@X;;;;>>;;:----:11,<;;,,::;>:,-->;--;;--<>--:::-----;;>;--  :1",
",,  --;:;,;;2>:--<,,;<;;<,::::<;::--,--;-->;--   ----,-,<<--@O:>",
",,  :-;;-,;;>>----,,<<;<,1::::;;->---:----;;-,O. -,,----<<--OO::",
"::+O--;>,,----,,,;:-;:;;---1;;,,-<--;;,--,--  ###:---::1----  ;;",
"::OO;-;;,11-,-,,,--;-,;<--,-;;,,----;,---,:,  ###:;---::----  ;>",
";;.+>;:---,,;;----:>,<---,,1--,,<;--------OO  +O@     OO  ,<Xo,<",
">;..<;-:--,1><---:::,,,;;-,,-:,-;;------,-OO  OO  OO   O  -,XX1,",
"22OO;-,<::--;;---1;;--;;;<;>-,:----;--;;X   XoX XXOO    XX--XX::",
"22@O,;,,::---;;--1--:-<<<;;;--------;-;;    XXX@XX O    XX--XX,:",
",,@X;--<1:,,,,:--;::---,;;;-----;;;;--:--;OO O  OO.O     X--  ,,",
",,XX;---::,,---::;::---;;;---:-,;;;;------OO     O .      --  ,,",
",,Xo----::,,--1:1;::----;;-----,;;;-----;-O+ .  XO o  O X -- X,,",
",- X;>>>--,::-;-;,<<,,----,------;<;;;---,:- XXXX-;-;;--,<;- X--",
";;O+---:1,;;:-------::,,;<1:--,1----;;,-;;;---o..---,,:----;OO:1",
";;+O--:1,,;:::----->:,11;;:::-:1;--,;;-,;;-:,-...;--,,,-----OO11",
":-  --<;----;-------,,::-,----,,,1::>;,;--:>-,;;;1-;--::----  -,",
"-,. --<<-----------:,,::----:-,,,,::;-<2--::--;;>1;---::---- O,,",
"1:  -----;<;;<<>;---;>;-----:-;;,-,,--;;----;;,,111:::;;;;:1  --",
"::OO------;;;,--;;---;-----:::;;-,,,--;;-----;,,,112>:--;<:>  -:",
"--. ::,,,1--:--,----------::--;---,-,-;;-----1:1:;-;,,;;,-;>@@1:",
"--  ::<,,,,-::----:-:--,:,::-:,;--,,-:------,,:-:;;;,,;;--;;OO1:",
";;oo::,,--:-:>-;--::--;;;:---;-;,,--------;-;--;-1--::>:-,;-Xo-,",
";;oo:-,,----:>---;::-;;--,-,-->-,,--;-----------:1--:1::-,-- X-;",
">>@O:>;;-:--,,---<--<,**$%,;-----:-;----**--:-----::--;;1,;-  -;",
";>OO:>;;----,-:--;--,,*&%%;;:---::;;-;--**---:----::--;;,,<; .--",
"-,@X;<----<;-------;1,*=***&;;----::::--**----;-----<>,-<<:-O.2>",
",1. <<-;-:;;--------,,******;;----::1:1-&*;-----:---;;--<;--  >>",
">2. ::;-----,,---,::--**,,*&*=-;-,--1<:-**::;---,--:,,1:-:--  :-",
">>. ::------,,--<-::--*&,-*===;;,---,,--**1:----,---,,-:::--  --",
":-. >:--,,---,:::-----%*-:-:=*%*--;;----**;<--,,,-11---,----  :1",
"--..2:--1,--;-:-:--:--**---,&***--;>----**;;;-,,1,,1--:-;:--  ::",
",,..;;>:--<;:1--,->>--**------****,-::--*=-,--,,,-::1:;-----  ,,",
",,..;;::--;;1,--------**-,----****:-:>--**--:--,,-::-:------  ,,",
"::  ---,,<---,;<;;--;:==--;;--:1****2:1-**-,:,-;------,;:::-  ,2",
":>  --:--,-:-;;;;;---;**:-;;--::**%*::;-**-:---,-:------::--  ,,",
",<  :--:::>>>:11:---,,**,:-,;---:-***=::**--;;---;::,,--;,;;@O,:",
",,. :---:>>>:>111---,,%*;---------***=--**-1>;---;:-,,;---;;OO--",
"1:XX---->;-----,------**,,:-----,,,,&&%***--,,1,,2,,--;;>::-OO-;",
":>XX---;;;-----------:**,1->----,,,,&&==&*--;,,,,<,,;--;>>-- +--",
";;+.;-,,--;-,,--:,----**----:-2;--::--****--1:2>;:,,1<:;--11..,,",
";;..--11:---,,---,----*&-------;-;,>--****--1:;>>:-,,,::-;11..,,",
";;XX;->><<------;----->;----:>;:----;-----::,,;;;-:--;>:--;;OO;;",
";;XX--;;<<:----,--:---;;;--<::-----:--,---:-,,;;-,>:-,::--;;OO;;",
";<XX-->>;<-------:----<;-,-<1:-,------:---:-,,;;;-::--::--;;OO;;",
"<<O --><,,---:,--:--<,::::-,1:-,::>1,-::-,,-:1-,-<-,-:-<---,  --",
":1XX22::,-::;----;--,,,-::--,,;;;;,-;->:<;--<<1---::;;;-;---OO--",
"::XX>>::,,:1;----,;-,,-,::--,,;-;;---->:;;--<<,---:>;<--;;-:O+--",
"-- .22::::---------;-----;--,,,1,,-:>>,,;;::;;---,;<;;2<,,:>..::",
"--  22::1:,--------;--;--;--1,<1,,-->>,,;;::-;---,;>;-22,<:>..::",
"1,@X------;<,,-,------;-1>->11,,::,<------;----;;-,<--><--;;X >:",
",,X ---,;-;-,,----,--;,-::;-11,,::,<-:----;>--;;;-<2--<;-:;<  ::",
"1> .;;---:<2<;---<,---::,-::----;;,1-,<>;-::--;;;,-:---,--,;  --",
"::o.<;;---<2;;-<<<-,--::,-::----;;,1--;;-<11--;-<---,,-:---- O;-",
"1,XX,-;;-;--,,,11-::--,,-->>--22--,,1,::------;-;:--<<2;1:;-. -:",
"11  --;<---;1-111;::-;,:--;>;-22--,,,,-:--<---;;;:--<<;;:::-. ,-",
"-1OOXX .##XXX    +  +  O OXX++      Xo  +OX@..+++O@@@##o o    --",
">:OO X  o#XX     + X      Xo O    X XX  @OXX.o+++O@@@Xoo    X :-",
"12---;,,::<<-;;--1;;->;;::>-;-::<;----,,,,>>:>-:-;::----,,<<<<>>",
",,----:,::;<-----1;;2;;<::----::<<---;,,-->>::---;;:-:--,,<<<<>>"
};
