/* XPM */
static char *result[] = {
/* columns rows colors chars-per-pixel */
"32 32 20 1 ",
"  c black",
". c #010000",
"X c #000100",
"o c #010100",
"O c #000001",
"+ c #010001",
"@ c #000101",
"# c #010101",
"$ c #3A311E",
"% c #3A301F",
"& c #3A311F",
"* c #3B311F",
"= c #CA8A0A",
"- c #CB8A0A",
"; c #CA8B0A",
": c #CB8B0A",
"> c #CA8A0B",
", c #CB8A0B",
"< c #CA8B0B",
"1 c #CB8B0B",
/* pixels */
"-:<>><;>;=;<-1;->,>-;;==--=>;===",
">  ..     .   #   . O..XO.X X  =",
">O=;:-=;===;=;=;>==-=-=<====,= ;",
"> ==;>:====->;=-->:==== >====;X;",
";O===:=;=<=-==,,>=>===OX;-==== -",
"-+====--=;;=====->;==O O .   ;@=",
",+=>=======-=====>=-..XX.O X = =",
"= -;;,=;-<-=-====-==-OX OO OO; =",
"= ;-==-->==-=;===,==== X=;==>- =",
": =<>-======,;=-=;=--== >=,=== =",
"=X=-=>==-=====;;=;->=;--=====; =",
"= -=<=-==;-===->==;-==-=;;;<== =",
"> =>==;=;==;====;=;====;--<-=-O=",
":.=<;====&=;===-==;==>&---=;=; >",
"- :-=====&====>==;=<=-$==;=-=- =",
"= ,;=====*-====&&==>==&==>==-= :",
": ;===>==&>====&&====;%;==<;>= =",
"=O<==>===&===;=%&=;>=-%=1<-=;=O>",
"> -->==<=&=>==;&&==;==&==<;===X=",
"; ;===-=>&==-=>&&>;=-,&===;=;=O=",
"= ;-=:-;=&=====&&=>>==&=-=>==-O,",
"= ==-==>==&==:&==%=;=%=>:;=,:= =",
":.====>==<&==>&==&;=>&>::=>=<< >",
",O==--;;==-%%*-=>=&&&><==;===,O,",
", >,=-====>>=>-==:=;==<=,==>=> >",
"=o;:>=-===>=>;==-===>==;=;;=== -",
"= ,=========-=>>==:==;=;,;-=>;.=",
"> ==;->===;<=;<;=>===>--=,;==-X;",
";.===1--:>=;=<==:>=->;--==-=== ;",
";X=====<=;=-:;=<==>;==-=====;= >",
";   +X .. O. XO   @  . + oXo   >",
">-===,;==-====->:=->=;;,-;==;-,:"
};
