/* XPM */
static char *result[] = {
/* columns rows colors chars-per-pixel */
"32 32 20 1 ",
"  c black",
". c #010000",
"X c #000100",
"o c #010100",
"O c #000001",
"+ c #010001",
"@ c #000101",
"# c #3A301E",
"$ c #3A311E",
"% c #3A301F",
"& c #3A311F",
"* c #3B311F",
"= c #CA8A0A",
"- c #CB8A0A",
"; c #CA8B0A",
": c #CB8B0A",
"> c #CA8A0B",
", c #CB8A0B",
"< c #CA8B0B",
"1 c #CB8B0B",
/* pixels */
"-:<>=<=>;=;<=:;->>>-;==---->;===",
"> O..   X . X O O   O .X@o  X .=",
">O==:-=;==<==;-;>==-=-;;====-= ;",
"> ====:===>->==-======= -===>; ;",
";O===>;====-==-,>====< @;===== -",
"-.====-==;;=-===-====O O     >@;",
",O=;===--===;-=====: .@X O O = <",
"<X==;,;;-;==-====1==-Oo O  O = =",
"= ;-===->=,======,=;== X====>- =",
": =<>-;===->>:=-====->= ==>=== ;",
"= =-====>========;:>=:--,=>;== =",
"-.-===--==-==<=>=====--=;;;;-= =",
"- =>==<====-====-=====>=,->>;-O=",
"-.=>==>>--===:=-=>=;=;<;:-<;== -",
"-+;-=======&&,===;==&=;==;=:=- =",
"= ,;===-===&&*====;;*=;-==;=-= ;",
": ;==>=====&=&&=====$;=;==>;;; =",
"= ;==:=-;==&==&*===>&-;==<==== =",
"> =>===>===&===&&===&-===>;-== ;",
"; ====;==>=%====&&;-&===>===<= =",
"= ==>:=;===&=====#&=&>-===<==-@>",
"= =>:;=====&;===:=&&&---:==-:= =",
"-.=-=,===>=&=======$%;=1;=>>;< >",
"- =--=;=-==>=>=====;==,==;=;=-O-",
", >,======>-==;;=;=;>=<=,;=>== =",
"=X;;>=-===>====--==>>=-<=:===-.=",
"= ,=>======-=;,==;1==;==>=-:><.=",
"> ;=>->>=;=-;><-=>==-=;-=-=-=> -",
";.=:==-=->=;:>==->=-=;>-==-=== =",
"-X;====1====;;=<==,===--===-;= ;",
"; .X+XX +    XO . XX   + oX    >",
">======-=,==>==;-==>=;;>-;=-==,-"
};
