/* XPM */
static char *result[] = {
/* columns rows colors chars-per-pixel */
"64 64 22 1 ",
"  c black",
". c #010000",
"X c #000100",
"o c #010100",
"O c #000001",
"+ c #010001",
"@ c #000101",
"# c #010101",
"$ c #3A301E",
"% c #3A311E",
"& c #3B311E",
"* c #3A301F",
"= c #3A311F",
"- c #3B311F",
"; c #CA8A0A",
": c #CB8A0A",
"> c #CA8B0A",
", c #CB8B0A",
"< c #CA8A0B",
"1 c #CB8A0B",
"2 c #CA8B0B",
"3 c #CB8B0B",
/* pixels */
",,,,22<<;;222;222>;;>;2233<3>>::<<<<<<;:;<;;;;:::2::;:<<2>;;;;<;",
",,,,22<<<;2>22222>;>>>223332>;:1<<<<<<::;;,;;::::2:1;;<<>;;;;;<<",
"11.   @O+   ..  X    o  @+  OO   OXX   .@@++..XXX@.oX .    O  <1",
"11.  XOO.. X.+      Xo O#@  OO  O XX   O@@O+.o XX@ .XXO    O X11",
"1<OO;;;>;;::2>:::>;;;;;;<<2>;;>>:;;;;;::;;::;;>2>:<<22;;:1<;  ,,",
"<<OO;;;;;;1:22,,:<;;;;;;<<>>>;>>:::;;;:;><,3;:>>;;<;>2;;::;;  1,",
";;OO;;;<;:,3,,;;;;;;::;;<<;<<;::;;;;;;;;>:;31<X  <::;;;;>>;< .22",
";<O+;;;;;;::,,;;;;;>1:;;<<;<<;;:;;,<:;;<2>;>11   <::;;;<>>>;  22",
">;OO;;;;,,;;;;<;21;;;;::;<;;:,22<<,,:1;;,;;:  @@@;;;<<;;;:;;X ;;",
">>O+>:;;,,;;;<;;;1>;>;;:;;>;::<2<<,,,,>;;<:;  @@@,>;<<>;>;;;+ ;;",
":;..;;11;;;;:;;;;;>:>>;;>>>1>;;;::;<::>2::OO  OOO  X  XX@X<<@@;;",
";;..;;<<>;;;:,;>;;>;>>1<>>;1;;;;::;;::;<:<OO OOOOXXO  @XXX<<O@;;",
"1< +,,1<;;<<::>;;;;;:<11<<:::1;;;;;;:;::.o+.XXX XO O  X X >;  ;;",
"11+ ,,<<;;<;,:>;;;;;<<::<<::::;<;;>;;;,:.+++XXXXXOOO.    X;: X;;",
";;oX;;;;>>1<:;,,>:,2;;>>1:;>32:;;;::11;;,:@X   .. X .. O  :;OO;;",
",;XX;:>;>;11;;,,,12>;;;2::;;<<;>;;::11;;::@@        ..    ;2OO<:",
"><XX>;;;>;13;::,,:>>;;;<::;;<<;;>;::11;;::@@ .    X ..    >>O@<;",
";;  22:1::;<;;131;;<2<>>;;;;>;:;>;:,;;;;::;;..XXX<<;,,,><1::  :;",
",3  ;;>>;;::>>;;;;;;;;<<2<,>:;,::;;:2<;;;:;;;; ..<;><<:;;;;; O,,",
":,  ;:,>;;::;>;;;;;;;;<<<<>><;:::>;;<;<>::;;;;   ;;;2<;>;>;;..3:",
";>  ;;::;;;<,,>;>:>;;;><;;<:<<;;;;>>::;;,:33>::::::::1<<1;;;. >:",
":; X;;:;;;2<>2>,>:;;<;;;;;;1;;>;;:>>::;:::33;;,:,<::::<<;:;;  ;;",
";;  ;;:;::;;::::::;;::::;>;:;;;;2<,,;;<;;;;;11;;;>>;>>>>1:;<O+>2",
";<  ;;;<::;;:::::;>;::1:>>;;>;;;;<>>;:;;;:;>11;;;>>>>>>,::,;OO>2",
";;O ;;<<>>;<>;;;;;:;;;;;<<<;;<;>;;<;22;;::<;<;;;<:::<<;;::;:@O;;",
";>  <;<2,>;<>>:;;;;;<>;;<<;;;;;;;;;;1<;;,:;;<;;;;:::<<;;:,::@@;;",
"::X.;><1;;>>;>;;;;=%<2;;;:;;;;:;2><;>;<2;;<<==>>>:::2>>2;:;>  11",
"::..2:<<;;>>;:;>;;=*<<;;;;>;;;:;>>;;>><<:;<<==>2>,::>>,>;<,;  11",
"::  ,,,;;<>><;>;;;%%;;;>;;::;;;;;;2><;<<;;;;*=;<<;;;>;:;;;:,  ;;",
":;  ,,,,:;>>;;;;;;%%;<<;;;::;;;<;;>>>:<<;;;<==;<;<;;;:::;;::O ;;",
"<2  <;>,<<2>;;;<<;==;;;,;;;;;;=%=-;;;;;;;;::==>;;;>2:><<::;;XX:;",
"<<  <<,>2;>>;;>;;;=%<;;;;;;;;;=-*=;;>;;;<;;1=*;;;;22;;<<::;;XX,:",
"33O ;;;;;;<;,,;;;>==;;;;<;<;>;%%=*<;>:::;;;;&=2>>:;;<<>,;;;>oo;>",
"3>X >;;;;;;;,,;;<>==;;;;::;;;;%%=%;;;;:1;;;<=->>>:;<<;2>;;><o.;;",
"<< .::>>:;;;;:;;;;==;:;<;;,,<>=*==;;:1<;;;<2%%;;;>22>;;;<;:;OO;>",
"<< O::>>;;;;;;;;;;==;;:;;;,,;;-===;>:,<<>;2<%&;;;223>;;;;;;;O+;;",
"<<  ;>;;::;;;;:::>$*;<;;;;<1>;====:;;;;;>>;;*=<<<<<<>><<:;;<@@>>",
"<2  >>;;::;;;,:::>%&><;;;<<<;;%===;;;;<;>>;>**<22;<<>><<;;>>@@>>",
"2; X;>;;;;;;;;;;;;*=22><;:<<;;==%&;;>>;2::<<==;2><:;<;<<>><<  ;;",
">>  <;;;:;:;<;<;;;==22<;;;;;;;==-=;;>2;;::<;==;:;<:1;;<;>><<  ;;",
";;..>>1<::,3::2>>;%%>;;;;;;;;;===-;;;;;;;;>,==::;>;;<<;>;;:;OO<<",
";;..>2<<::,,:1222;%%:;;;;<;:;;%===;;;;,;;>>;==;;;<;:<<;;>;:;OO<<",
"<;  ;;<;:;;<<<2;;>;:*%1<;:<<--:;;<==>;;;>;=-;;<<23>2;;:13,;;  :1",
";;  ;<;;;;;;<<:;;>;;**<<;<<<-&;;;:==;>;;;;==;;<<33>>;;,:3,;;  ::",
"::  ,>:;;;;;<1;:;:;:=-;;:;;:==;;;;**;>;;1<&-;;:::3,:>2;>>><<. :;",
":;  >>;;;;;>1<:>>;;:==;;;<;;=%;;;;**;>;;<<--;;:;:,::22;<;><< X::",
"::.o>>;,::<<>>>>;;;;;;*===**13;;:,<<=-=%==>;<<;;;::;;;>;;;;:O <<",
":1..>2::::<1>>;;;>;>;;=-=-%$::;;,,<;======:;<<;;<:<;;<;;;;::O+<<",
"::..>;::::<<;2;;:>>;;;-===*$::;:,,;;=-%===;;<<;;;:;;;;;;;;::O+;<",
"33+O<<<:;;;;;;1:;<11;;;;;><<:<;;;>,,;;>>;;;;22;>;1<<<;;;;:;;  ;:",
";;  >>>><2:;,,1:::>;13;<;>>;;;13::;;;;<;;;2<<<;;;:>>;;::>>:;.O>;",
"<;  >>>><2;;,,1:3:;;11<<;;:;:;11::;;;;:;;;1<<<>;:;>>;;::>>;;  ;1",
">2  :3<<;;;;;;;;:;;;;;;>,;;;11<<;;;;>>>;>>;<<;>>><;1:,;;<<>>..;;",
";>  13<<;;,:;;;:;;>2;:<;<;;;<<<1;;>;>>;>>>;;<;;>><<>33;:<<>>..;<",
";;  ;>;;;:,,22;;;<2;;;<2<1;;22<;;;<<>2;:;::;;;:::111;;;;;;::  ;>",
";;. >;,:;;,,22;;;<<;;;2213;<<2>;;<<<,>>;;;;;;;::::<1;;;;;;::  >>",
";>..;;::>>:;1<;>;11<<;>>>;<<;<<;;<;1;;;:;;;;<<111;;;;;;>;;;;. ;;",
">>o.;<::>2;:1:;;;1<1;;>><;<<;,;:<>;;;;;;2;;;<<<11<<:;;2>;;;;  ;;",
";;XX;;;;;;;;<;122:<<;;::>>;;;;23;;;;<<>,;;:;2<;;;<<;;;::,,;; o;<",
";;XX;;;;;;<;:;>22:>;;;:<>>;;;;22;<;><<>>;;<;12;;;<:<;;:;:3;;O ;;",
">>  +OX...XX  OX oO OOO   oX@@    O oXO ..++  .#+ XXXX..    OO;;",
">>  O+ ...XX   X .. OO X  XX@@      XXOX .O   +++ XXXX+.    OO;;",
"<<1:>>;;3>11;;;;;>:;<<;;>>;;;;<<::;>;;<<;;2,>>;;;:>:>>;;;;,:11>>",
"<1::2>;;>>11;;;;;;::<3;;>>;<;;2<::,>;;<<;;22;>:;;1>>>>;;<;,><1>>"
};
